# xmcd
#
# Track frame offsets:
#	150
#	15779
#	29011
#	42818
#	61417
#	76853
#	89531
#	111187
#	127540
#	141542
#	155184
#	167739
#
# Disc length: 2514 seconds
#
# Revision: 0
# Processed by: cddbd v1.5.2PL0 Copyright (c) Steve Scherf et al.
# Submitted via: dBpowerAMP V4.0
#
DISCID=9509d00c
DTITLE=Hank Ray - Ballads form the Badlands of Hearts
DYEAR=2005
DGENRE=Country
TTITLE0=Six more Miles to the Graveyard
TTITLE1=Lost on the River
TTITLE2=Sombody's lonesome
TTITLE3=Men with broken Hearts
TTITLE4=A Stranger in the Night
TTITLE5=Your turn to cry
TTITLE6=Alone and Forsaken
TTITLE7=The pale Horse and his Rider
TTITLE8=I told a Lie to my Heart
TTITLE9=Forever is a long, long Time
TTITLE10=The Angel of Death
TTITLE11=Wedding Bells
EXTD=
EXTT0=
EXTT1=
EXTT2=
EXTT3=
EXTT4=
EXTT5=
EXTT6=
EXTT7=
EXTT8=
EXTT9=
EXTT10=
EXTT11=
PLAYORDER=
